<svg xmlns="http://www.w3.org/2000/svg" viewBox="0 0 288 288" enable-background="new 0 0 288 288"><path d="M278.4 109.4c-6.6-26.4-19.6-49.2-39.6-67.6-21.4-19.6-46.5-32.4-75.4-36.8-3.1-.5-6.2-.8-9.3-1.2h-23.8c-9.1 1.2-18.3 2.4-27.2 5.3-51 16.4-83.4 50.6-96.9 102.5-2 7.8-2.7 15.8-3.6 23.7v15c.8 8.5 1.6 17 3.8 25.3 15.1 55.1 50.4 89.7 105.7 103.9 6.2 1.6 12.5 2.1 18.8 3h22.5c9.3-1.2 18.5-2.6 27.6-5.2 19.7-5.8 37.2-15.6 52.9-28.8 25.9-21.8 40.7-49.6 46.7-82.6.9-5.1 1.3-10.3 1.9-15.5v-14.4c-.9-9-1.9-17.9-4.1-26.6zm-102.7-19.6c6.6.2 13.1.1 19.7.1 6.7 0 13.3.1 20-.1 2.8 0 3.6 1 3.6 3.7 0 9.8.1 9.8-9.7 9.8-11.3 0-22.5-.1-33.8 0-2.9 0-4-1-3.7-3.8.2-1.9.2-3.8 0-5.6-.2-3.1.9-4.2 3.9-4.1zm-30.2 85.5c-4 13.9-14.4 20-27.7 22.4-3 .5-6 .6-9 .6h-54.1c-4.1 0-4.2-.1-4.2-4.2v-107c0-4.1.1-4.2 4.3-4.2h56.3c5.2 0 10.4 1 15.2 3.1 10.6 4.8 15.8 13.2 16.4 24.6.2 2.9.3 5.8-.3 8.7-1.6 7.5-5.9 12.5-13.1 15-.6.2-1.2.4-1.7.7-.2.1-.3.3-.6.7 12.8 2.9 18 9 19.7 22.2.6 6 .4 11.7-1.2 17.4zm91.9-17.1c-.1 2.8-1 3.9-3.9 3.8-8.9-.1-17.7 0-26.6 0h-26.6c-3.7 0-4.2.6-3.7 4.3 1.1 9.3 7.7 15.8 17.1 16.7 4.5.4 9 .3 13.3-1.2 4.2-1.5 7.5-4.1 8.8-8.6.6-1.9 1.7-2.6 3.6-2.6 4.5.1 9 .1 13.5 0 2.6-.1 3.2 1.1 2.9 3.5-1.5 12.8-9.1 20.5-21 24.2-11.4 3.6-23 3.5-34.5.3-12.8-3.6-21.5-11.9-25.3-24.6-5.5-18.6-2.6-35.8 11-50.2 6.4-6.8 14.9-9.7 24.1-10.7 6.2-.7 12.3-.5 18.3.9 11.8 2.7 20.2 9.7 24.6 21 2.8 7.3 4.7 15.1 4.4 23.2zm-114.5 8.2c-1.1 7.7-5.5 11.8-13.9 12.1-9.9.3-19.8.1-29.7.1-2.4 0-3-1.1-3-3.3.1-8.6.1-17.1 0-25.7 0-2.3.9-3.2 3.1-3.2h15.3c4.6 0 9.2-.1 13.8 0 7.9.1 12.4 3.8 14.1 11.5.6 2.9.6 5.7.3 8.5zm-3.8-51c.1 2.2-.3 4.6-.9 6.8-1.2 4.7-3.4 6.8-8.2 7.2-10.3.8-20.6.2-31 .3-1.9 0-2.8-.9-2.8-2.9.1-7 .1-14 0-21 0-2.4 1-3.1 3.2-3.1h15c4 0 7.9.2 11.9 0 9.5-.6 12.4 4.2 12.8 12.7zm95.9 29.5c.1 2-1 2.5-2.7 2.5h-16.5c-5.5 0-11-.1-16.5 0-2.5 0-3.1-.8-2.4-3.2 3.2-12 15.5-18.5 27.2-14.4 5.9 2.2 10.7 8.7 10.9 15.1z"/></svg>