<?xml version="1.0" encoding="utf-8"?>
<!-- Generator: Adobe Illustrator 19.1.0, SVG Export Plug-In . SVG Version: 6.00 Build 0)  -->
<svg version="1.1" id="Layer_1" xmlns="http://www.w3.org/2000/svg" xmlns:xlink="http://www.w3.org/1999/xlink" x="0px" y="0px"
	 viewBox="0 0 288 288" style="enable-background:new 0 0 288 288;" xml:space="preserve">
<style type="text/css">
	.st0{fill:#0A1337;}
	.st1{fill:#FFFFFF;}
</style>
<path class="st0" d="M156.8,273.5c7.8-2.2,15.7-3.5,24.1-3.9c3.1-0.2,6.2-0.2,9.3-0.2c7.1-1.7,14-4,20.7-7.2
	c10.5-5.1,20-11.6,28.5-19.1c19.9-17.6,31.5-42.8,33.2-69.3c0.3-4.8,0.6-9.5,0.9-14c2-29,0.6-57.1-13.2-83.2
	c-4.2-8.1-10.7-19-18.5-28.3c-7.3-5-14.3-9.7-21.6-14.7c-1.8-0.7-3.5-1.8-5.2-3.3c-1.8-0.3-3.7-0.8-5.7-1.7
	c-0.2-0.1-0.4-0.2-0.6-0.3c-1.7-0.3-3.2-0.9-4.6-1.5c-3-0.7-6-1.4-9-2c-33.6-6.7-70.5-22.7-101.5-2.3c-1.7,1.1-3.5,1.8-5.2,2.4
	c-4.7,3.7-9.1,7.7-13.1,11.9c-16.9,23-23.6,39.1-39.6,69.1c-0.6,1-1.4,1.9-2.8,2.9c-4.4,3.2-8.1,7.3-10.7,12.1
	c-0.3,0.5-0.6,1.1-0.9,1.6c-4.7,8.5-7.5,17.7-9.8,26.9c-0.7,6-1.2,12.1-1.1,18.1c0.5,2.4,1,4.8,1.6,7.2c1.3,2,2.6,4,3.8,6.1
	c10.1,17.5,18.6,34.9,34.5,48.1c18.9,15.7,41.8,25,63.5,36.4c10.4,5.5,22.1,8.3,33.9,8.3C150.7,273.6,153.8,273.6,156.8,273.5z"/>
<g id="NpkUt8.tif">
	<g>
		<path class="st1" d="M195.5,91.1c6.8,0.2,13.6,0.1,20.4,0.1c6.9,0,13.8,0.1,20.8-0.1c2.9-0.1,3.7,1,3.7,3.8
			c0,10.1,0.1,10.1-10,10.1c-11.7,0-23.4-0.1-35,0.1c-3,0-4.1-1-3.9-4c0.2-1.9,0.2-3.9,0-5.8C191.2,92.2,192.3,91,195.5,91.1z
			 M164.1,179.7c-4.1,14.4-14.9,20.7-28.7,23.2c-3.1,0.6-6.2,0.7-9.4,0.7c-18.7,0-37.4,0-56.1,0c-4.3,0-4.4-0.1-4.4-4.4
			c0-37,0-74,0-110.9c0-4.2,0.1-4.3,4.4-4.3c19.5,0,38.9,0,58.4,0c5.4,0,10.8,1,15.8,3.2c11,4.9,16.4,13.7,17,25.5
			c0.2,3,0.3,6-0.3,9c-1.6,7.7-6.1,13-13.6,15.6c-0.6,0.2-1.2,0.4-1.8,0.7c-0.2,0.1-0.3,0.3-0.6,0.7c13.2,3,18.6,9.4,20.4,23
			C166,167.9,165.7,173.9,164.1,179.7z M259.4,162.1c-0.1,2.9-1,4-4,4c-9.2-0.1-18.4-0.1-27.6-0.1c-9.2,0-18.4,0-27.6,0
			c-3.8,0-4.3,0.7-3.9,4.4c1.2,9.7,8,16.4,17.7,17.3c4.6,0.4,9.3,0.3,13.8-1.3c4.4-1.6,7.8-4.3,9.1-8.9c0.6-2,1.7-2.7,3.8-2.7
			c4.7,0.1,9.3,0.1,14,0c2.7-0.1,3.3,1.1,3,3.6c-1.6,13.3-9.5,21.2-21.8,25.1c-11.9,3.7-23.9,3.7-35.8,0.3
			c-13.3-3.7-22.3-12.3-26.3-25.5c-5.7-19.3-2.7-37.1,11.4-52.1c6.6-7.1,15.4-10.1,25-11.1c6.4-0.7,12.8-0.5,19,0.9
			c12.3,2.8,20.9,10,25.5,21.8C257.8,145.6,259.7,153.6,259.4,162.1z"/>
		<path class="st0" d="M140.7,170.6c-1.1,8-5.7,12.2-14.4,12.5c-10.3,0.3-20.5,0.1-30.8,0.1c-2.4,0-3.1-1.2-3.1-3.4
			c0.1-8.9,0.1-17.7,0-26.6c0-2.4,0.9-3.3,3.2-3.3c5.3,0,10.6,0,15.9,0c0,0,0,0,0,0c4.8,0,9.5-0.1,14.3,0c8.2,0.1,12.8,4,14.6,12
			C141,164.8,141.1,167.7,140.7,170.6z"/>
		<path class="st0" d="M136.8,117.6c0.1,2.3-0.3,4.8-0.9,7c-1.2,4.9-3.5,7-8.5,7.4c-10.7,0.8-21.4,0.2-32.1,0.3c-2,0-2.9-0.9-2.9-3
			c0.1-7.2,0.1-14.5,0-21.7c0-2.4,1.1-3.3,3.3-3.2c5.2,0,10.4,0,15.6,0c0,0,0,0,0,0c4.1,0,8.2,0.2,12.3,0
			C133.3,103.9,136.4,108.8,136.8,117.6z"/>
		<path class="st0" d="M236.2,148.3c0.1,2.1-1,2.6-2.8,2.6c-2.9,0-5.8,0-8.7,0h-8.4c-5.7,0-11.4-0.1-17.2,0
			c-2.6,0.1-3.2-0.9-2.5-3.3c3.4-12.4,16.1-19.2,28.3-14.9C231.1,134.9,235.9,141.6,236.2,148.3z"/>
	</g>
</g>
</svg>
