<svg xmlns="http://www.w3.org/2000/svg" viewBox="0 0 288 288" enable-background="new 0 0 288 288"><style type="text/css">.st0{fill:#0A1337;} .st1{fill:#FFFFFF;}</style><path class="st0" d="M156.8 273.5c7.8-2.2 15.7-3.5 24.1-3.9 3.1-.2 6.2-.2 9.3-.2 7.1-1.7 14-4 20.7-7.2 10.5-5.1 20-11.6 28.5-19.1 19.9-17.6 31.5-42.8 33.2-69.3.3-4.8.6-9.5.9-14 2-29 .6-57.1-13.2-83.2-4.2-8.1-10.7-19-18.5-28.3l-21.6-14.7c-1.8-.7-3.5-1.8-5.2-3.3-1.8-.3-3.7-.8-5.7-1.7l-.6-.3c-1.7-.3-3.2-.9-4.6-1.5-3-.7-6-1.4-9-2-33.6-6.7-70.5-22.7-101.5-2.3-1.7 1.1-3.5 1.8-5.2 2.4-4.7 3.7-9.1 7.7-13.1 11.9-16.9 23-23.6 39.1-39.6 69.1-.6 1-1.4 1.9-2.8 2.9-4.4 3.2-8.1 7.3-10.7 12.1l-.9 1.6c-4.7 8.5-7.5 17.7-9.8 26.9-.7 6-1.2 12.1-1.1 18.1.5 2.4 1 4.8 1.6 7.2 1.3 2 2.6 4 3.8 6.1 10.1 17.5 18.6 34.9 34.5 48.1 18.9 15.7 41.8 25 63.5 36.4 10.4 5.5 22.1 8.3 33.9 8.3 3 0 6.1 0 9.1-.1z"/><g id="NpkUt8.tif"><path class="st1" d="M195.5 91.1c6.8.2 13.6.1 20.4.1 6.9 0 13.8.1 20.8-.1 2.9-.1 3.7 1 3.7 3.8 0 10.1.1 10.1-10 10.1-11.7 0-23.4-.1-35 .1-3 0-4.1-1-3.9-4 .2-1.9.2-3.9 0-5.8-.3-3.1.8-4.3 4-4.2zm-31.4 88.6c-4.1 14.4-14.9 20.7-28.7 23.2-3.1.6-6.2.7-9.4.7h-56.1c-4.3 0-4.4-.1-4.4-4.4v-110.9c0-4.2.1-4.3 4.4-4.3h58.4c5.4 0 10.8 1 15.8 3.2 11 4.9 16.4 13.7 17 25.5.2 3 .3 6-.3 9-1.6 7.7-6.1 13-13.6 15.6-.6.2-1.2.4-1.8.7-.2.1-.3.3-.6.7 13.2 3 18.6 9.4 20.4 23 .8 6.2.5 12.2-1.1 18zm95.3-17.6c-.1 2.9-1 4-4 4-9.2-.1-18.4-.1-27.6-.1h-27.6c-3.8 0-4.3.7-3.9 4.4 1.2 9.7 8 16.4 17.7 17.3 4.6.4 9.3.3 13.8-1.3 4.4-1.6 7.8-4.3 9.1-8.9.6-2 1.7-2.7 3.8-2.7 4.7.1 9.3.1 14 0 2.7-.1 3.3 1.1 3 3.6-1.6 13.3-9.5 21.2-21.8 25.1-11.9 3.7-23.9 3.7-35.8.3-13.3-3.7-22.3-12.3-26.3-25.5-5.7-19.3-2.7-37.1 11.4-52.1 6.6-7.1 15.4-10.1 25-11.1 6.4-.7 12.8-.5 19 .9 12.3 2.8 20.9 10 25.5 21.8 3.1 7.8 5 15.8 4.7 24.3z"/><path class="st0" d="M140.7 170.6c-1.1 8-5.7 12.2-14.4 12.5-10.3.3-20.5.1-30.8.1-2.4 0-3.1-1.2-3.1-3.4.1-8.9.1-17.7 0-26.6 0-2.4.9-3.3 3.2-3.3h15.9c4.8 0 9.5-.1 14.3 0 8.2.1 12.8 4 14.6 12 .6 2.9.7 5.8.3 8.7zm-3.9-53c.1 2.3-.3 4.8-.9 7-1.2 4.9-3.5 7-8.5 7.4-10.7.8-21.4.2-32.1.3-2 0-2.9-.9-2.9-3 .1-7.2.1-14.5 0-21.7 0-2.4 1.1-3.3 3.3-3.2h15.6c4.1 0 8.2.2 12.3 0 9.7-.5 12.8 4.4 13.2 13.2zm99.4 30.7c.1 2.1-1 2.6-2.8 2.6h-17.1c-5.7 0-11.4-.1-17.2 0-2.6.1-3.2-.9-2.5-3.3 3.4-12.4 16.1-19.2 28.3-14.9 6.2 2.2 11 8.9 11.3 15.6z"/></g></svg>