<svg xmlns="http://www.w3.org/2000/svg" viewBox="0 0 288 288" enable-background="new 0 0 288 288"><path d="M122.7 141.1c-.1-10.8 9.2-20.2 20.1-20.2 11 0 19.9 9.1 19.9 20.2 0 11.2-8.8 19.9-20.1 19.7-10.9 0-19.8-8.9-19.9-19.7zm45.1-43.5h18.4v18.7h-18.4zm20.9 35.1c0 14.1.1 28.2 0 42.3 0 7.7-4.4 12-12.1 12-22.4.1-44.8.1-67.2 0-8 0-12.2-4.3-12.2-12.3v-40.8c0-1.3.2-2.6.3-4.2h15.8c-3.5 12.1-1.9 23 6.5 32.3 6.1 6.8 14 10.2 23 10.3 20.9.1 32.5-16.2 29.9-42.5h15.4c.2 1 .6 1.9.6 2.9zm-44.6-129.6c-77.5 0-140.3 62.8-140.3 140.3 0 77.4 62.8 140.2 140.3 140.2s140.3-62.8 140.3-140.2c0-77.5-62.8-140.3-140.3-140.3zm55.8 172.7c-.1 12.9-9.8 22.3-22.8 22.3-22.9.1-45.8.1-68.8 0-12.9 0-22.4-9-22.6-21.9-.3-23.4-.3-46.9 0-70.3.1-13.1 9.4-21.9 22.4-22 11.5-.1 23.1 0 34.6 0s23.1-.1 34.7 0c12.8.1 22.3 9.2 22.5 22 .3 23.4.3 46.7 0 69.9z"/></svg>