<?xml version="1.0" encoding="utf-8"?>
<!-- Generator: Adobe Illustrator 19.1.0, SVG Export Plug-In . SVG Version: 6.00 Build 0)  -->
<svg version="1.1" id="Layer_1" xmlns="http://www.w3.org/2000/svg" xmlns:xlink="http://www.w3.org/1999/xlink" x="0px" y="0px"
	 viewBox="0 0 288 288" style="enable-background:new 0 0 288 288;" xml:space="preserve">
<style type="text/css">
	.st0{fill:#0A1337;}
</style>
<path class="st0" d="M276.5,111.8c-0.9-6-3.3-11.7-7-16.6c-8.5-11.2-18.1-21.6-26.2-30.9c-19.2-22-40.1-41-68.6-49.9
	c-8.9-2.7-21.4-6-33.9-7c-8.6,1.7-16.7,3.3-25.3,5c-1.8,0.7-3.8,1.2-6,1.4c-1.5,1.2-3.2,2.1-5.2,2.9c-0.2,0.1-0.5,0.2-0.7,0.2
	c-1.4,1-2.9,1.7-4.3,2.2c-2.6,1.6-5.2,3.3-7.8,5c-28.7,19.1-66.3,34-73.9,70.6c-0.4,2-1.1,3.8-2,5.3c-0.7,6-1,12-0.9,17.8
	c9.8,24.1,21.7,51.5,21,77.4c-0.1,3.8-0.7,7.5-1.5,11.2c1,3.6,2,7.3,3.1,10.8c2.7,9.4,7.2,17.9,12.2,26.1c3.8,4.8,7.8,9.4,12.1,13.7
	c2,1.4,4.1,2.7,6.3,3.9c2.4,0.5,4.7,1,7.1,1.6c19.6,5.2,38,11.6,58.7,9.7c22.7-2.1,43.9-10.5,65.5-17.5
	c15.9-5.2,30.3-14.2,41.8-26.4l0.2-0.2c4-7.2,8.7-13.6,14.4-20c2.1-2.3,4.3-4.6,6.5-6.7c3.8-6.2,7.1-12.8,9.6-19.9
	C279.6,159,280,135.2,276.5,111.8z M106.7,209.6H75.2v-104h31.5V209.6z M90.9,91.5C80.6,91.5,72.1,83,72,72.6
	C71.9,62,80.3,53.2,90.7,53.1c10.2-0.1,19.1,8.7,19.2,19.1C110,82.6,101.1,91.6,90.9,91.5z M228.1,209.6h-31.6
	c0-1.4-0.2-2.7-0.2-3.9c0-17.1,0-34.1-0.1-51.1c0-3.3-0.5-6.7-1.2-9.9c-1.9-8.4-7.1-12.8-15.4-13.4c-8.4-0.6-15.9,3.5-18.7,10.9
	c-1.3,3.6-2.1,7.6-2.2,11.4c-0.2,17.2-0.1,34.5-0.1,51.8v4.1h-30.7V105.6h30.6v13.5c2.6-2.8,4.4-5.1,6.5-7
	c11.8-10.6,25.6-12.1,40-7.2c13.7,4.7,20.2,15.5,22.2,29.4c0.5,3.1,0.7,6.1,0.7,9.2c0,20.7,0,41.4,0,62.2V209.6z"/>
</svg>
