<svg xmlns="http://www.w3.org/2000/svg" viewBox="0 0 288 288" enable-background="new 0 0 288 288"><style type="text/css">.st0{fill:#0A1337;}</style><path class="st0" d="M276.5 111.8c-.9-6-3.3-11.7-7-16.6-8.5-11.2-18.1-21.6-26.2-30.9-19.2-22-40.1-41-68.6-49.9-8.9-2.7-21.4-6-33.9-7l-25.3 5c-1.8.7-3.8 1.2-6 1.4-1.5 1.2-3.2 2.1-5.2 2.9-.2.1-.5.2-.7.2-1.4 1-2.9 1.7-4.3 2.2-2.6 1.6-5.2 3.3-7.8 5-28.7 19.1-66.3 34-73.9 70.6-.4 2-1.1 3.8-2 5.3-.7 6-1 12-.9 17.8 9.8 24.1 21.7 51.5 21 77.4-.1 3.8-.7 7.5-1.5 11.2 1 3.6 2 7.3 3.1 10.8 2.7 9.4 7.2 17.9 12.2 26.1 3.8 4.8 7.8 9.4 12.1 13.7 2 1.4 4.1 2.7 6.3 3.9 2.4.5 4.7 1 7.1 1.6 19.6 5.2 38 11.6 58.7 9.7 22.7-2.1 43.9-10.5 65.5-17.5 15.9-5.2 30.3-14.2 41.8-26.4l.2-.2c4-7.2 8.7-13.6 14.4-20 2.1-2.3 4.3-4.6 6.5-6.7 3.8-6.2 7.1-12.8 9.6-19.9 7.9-22.5 8.3-46.3 4.8-69.7zm-169.8 97.8h-31.5v-104h31.5v104zm-15.8-118.1c-10.3 0-18.8-8.5-18.9-18.9-.1-10.6 8.3-19.4 18.7-19.5 10.2-.1 19.1 8.7 19.2 19.1.1 10.4-8.8 19.4-19 19.3zm137.2 118.1h-31.6c0-1.4-.2-2.7-.2-3.9 0-17.1 0-34.1-.1-51.1 0-3.3-.5-6.7-1.2-9.9-1.9-8.4-7.1-12.8-15.4-13.4-8.4-.6-15.9 3.5-18.7 10.9-1.3 3.6-2.1 7.6-2.2 11.4-.2 17.2-.1 34.5-.1 51.8v4.1h-30.7v-103.9h30.6v13.5c2.6-2.8 4.4-5.1 6.5-7 11.8-10.6 25.6-12.1 40-7.2 13.7 4.7 20.2 15.5 22.2 29.4.5 3.1.7 6.1.7 9.2v66.1z"/></svg>