<svg xmlns="http://www.w3.org/2000/svg" viewBox="0 0 288 288" enable-background="new 0 0 288 288"><path d="M143.3 3.9c-77.5 0-140.3 62.8-140.3 140.3s62.8 140.3 140.3 140.3 140.3-62.8 140.3-140.3-62.8-140.3-140.3-140.3zm-37.8 207h-29.7v-98h29.6v98zm-15-111.2c-9.7 0-17.7-8-17.8-17.8-.1-10 7.8-18.2 17.6-18.3 9.6-.1 18 8.2 18.1 18 .1 9.7-8.2 18.1-17.9 18.1zm129.3 107.4v3.8h-29.7c-.1-1.3-.2-2.5-.2-3.7 0-16 .1-32.1-.1-48.1 0-3.1-.4-6.3-1.1-9.3-1.8-7.9-6.7-12-14.5-12.6-7.9-.6-15 3.3-17.6 10.3-1.3 3.4-2 7.2-2.1 10.8-.2 16.3-.1 32.5-.1 48.8v3.8h-28.9v-97.9h28.8v12.7c2.4-2.6 4.1-4.8 6.2-6.6 11.1-10 24.1-11.4 37.7-6.8 12.9 4.4 19 14.6 20.9 27.6.4 2.9.6 5.8.6 8.7.2 19.4.1 39 .1 58.5z"/></svg>