<?xml version="1.0" encoding="utf-8"?>
<!-- Generator: Adobe Illustrator 19.1.0, SVG Export Plug-In . SVG Version: 6.00 Build 0)  -->
<svg version="1.1" id="Layer_1" xmlns="http://www.w3.org/2000/svg" xmlns:xlink="http://www.w3.org/1999/xlink" x="0px" y="0px"
	 viewBox="0 0 288 288" style="enable-background:new 0 0 288 288;" xml:space="preserve">
<style type="text/css">
	.st0{fill:#0A1337;}
</style>
<path d="M17.8,64.9L17.8,64.9z"/>
<path class="st0" d="M266.8,90c-1.1-1.8-1.9-3.5-2.4-5.2c-3.7-4.7-7.8-9.2-12.1-13.3c-24.1-10.2-52-21.2-69.8-40.1
	c-0.7-0.7-1.3-1.4-1.9-2.1c-4-4.8-8.6-8.9-14.1-11.9c-0.3-0.2-0.5-0.3-0.8-0.5c-8.6-4.7-17.8-7.5-27.2-9.9
	c-6.1-0.7-12.2-1.2-18.3-1.2c-2.4,0.5-4.9,1-7.3,1.7c-2,1.3-4,2.6-6.1,3.8C89.1,21.6,71.5,30.1,58.1,46.2
	c-14.6,17.6-23.7,38.6-34.1,59c-7.6,15-11.5,31.6-11,48.4l0,0.3c2.2,7.9,3.5,15.9,4,24.4l0,0.4c0.4,9,2.2,17.9,5.7,26.1
	c0.5,1.3,1.1,2.5,1.7,3.8c7.5,15.5,18,28.7,30.3,40.1c13.5,12.5,30.8,20.1,49.2,21.6c8.3,0.7,16.5,1.1,24,1.6
	c29.3,2,57.7,0.6,84.1-13.3c8.1-4.3,19.1-10.7,28.6-18.7c5.1-7.4,9.9-14.5,14.9-21.9c0.7-1.8,1.8-3.6,3.3-5.3
	c0.2-1.9,0.8-3.8,1.7-5.8c0.1-0.2,0.2-0.4,0.3-0.7c0.3-1.7,0.9-3.2,1.5-4.6c0.7-3,1.4-6.1,2-9.1C271.2,158.6,287.4,121.3,266.8,90z
	 M225.1,118.7c0,0-0.3,162.9-173.3,101.5c0,0,31.2,3.3,57.1-17c0,0-29.6-1.9-37-27.8c0,0,9.2,1.9,17-0.7c0,0-30.3-8.5-30.7-39.2
	c0,0,11.8,5.6,17.8,4c0,0-29.8-17.3-12.5-52.8c0,0,30.5,39.7,82.7,41.5c0,0-8-30.6,20.7-44.9c28.8-14.3,47,8.2,47,8.2
	s20.8-4.6,25.7-9.8c0,0-2.8,12.9-16.8,22.6c0,0,16.8-4,22.3-6.4C245.3,98,236.4,111.1,225.1,118.7z"/>
</svg>
