<svg xmlns="http://www.w3.org/2000/svg" viewBox="0 0 288 288" enable-background="new 0 0 288 288"><path d="M143.7 3.3c-77.5 0-140.3 62.8-140.3 140.3 0 77.4 62.8 140.2 140.3 140.2s140.3-62.8 140.3-140.2c0-77.5-62.8-140.3-140.3-140.3zm54.6 109.9s-.2 115-122.3 71.7c0 0 22.1 2.3 40.3-12 0 0-20.9-1.3-26.1-19.6 0 0 6.5 1.3 12-.5 0 0-21.4-6-21.7-27.7 0 0 8.3 3.9 12.6 2.9 0 0-21-12.2-8.8-37.3 0 0 21.5 28 58.4 29.3 0 0-5.6-21.6 14.6-31.7 20.3-10.3 33.2 5.7 33.2 5.7s14.7-3.2 18.1-6.9c0 0-1.9 9.1-11.9 15.9 0 0 11.9-2.8 15.7-4.5.1 0-6.1 9.3-14.1 14.7z"/></svg>