<svg xmlns="http://www.w3.org/2000/svg" viewBox="0 0 288 288" enable-background="new 0 0 288 288"><style type="text/css">.st0{fill:#0A1337;}</style><path d="M17.8 64.9z"/><path class="st0" d="M266.8 90c-1.1-1.8-1.9-3.5-2.4-5.2-3.7-4.7-7.8-9.2-12.1-13.3-24.1-10.2-52-21.2-69.8-40.1-.7-.7-1.3-1.4-1.9-2.1-4-4.8-8.6-8.9-14.1-11.9l-.8-.5c-8.6-4.7-17.8-7.5-27.2-9.9-6.1-.7-12.2-1.2-18.3-1.2-2.4.5-4.9 1-7.3 1.7-2 1.3-4 2.6-6.1 3.8-17.7 10.3-35.3 18.8-48.7 34.9-14.6 17.6-23.7 38.6-34.1 59-7.6 15-11.5 31.6-11 48.4v.3c2.2 7.9 3.5 15.9 4 24.4v.4c.4 9 2.2 17.9 5.7 26.1.5 1.3 1.1 2.5 1.7 3.8 7.5 15.5 18 28.7 30.3 40.1 13.5 12.5 30.8 20.1 49.2 21.6 8.3.7 16.5 1.1 24 1.6 29.3 2 57.7.6 84.1-13.3 8.1-4.3 19.1-10.7 28.6-18.7 5.1-7.4 9.9-14.5 14.9-21.9.7-1.8 1.8-3.6 3.3-5.3.2-1.9.8-3.8 1.7-5.8.1-.2.2-.4.3-.7.3-1.7.9-3.2 1.5-4.6.7-3 1.4-6.1 2-9.1 6.9-33.9 23.1-71.2 2.5-102.5zm-41.7 28.7s-.3 162.9-173.3 101.5c0 0 31.2 3.3 57.1-17 0 0-29.6-1.9-37-27.8 0 0 9.2 1.9 17-.7 0 0-30.3-8.5-30.7-39.2 0 0 11.8 5.6 17.8 4 0 0-29.8-17.3-12.5-52.8 0 0 30.5 39.7 82.7 41.5 0 0-8-30.6 20.7-44.9 28.8-14.3 47 8.2 47 8.2s20.8-4.6 25.7-9.8c0 0-2.8 12.9-16.8 22.6 0 0 16.8-4 22.3-6.4.2.1-8.7 13.2-20 20.8z"/></svg>